Coordinates
version=1
nRows=17
nColumns=27
inDegrees=yes

Units are S.I. units (second, meters, Newtons, ...)
If the header above contains a line with 'inDegrees', this indicates whether rotational values are in degrees (yes) or radians (no).

endheader
time	pelvis_rotation	pelvis_tilt	pelvis_list	pelvis_tx	pelvis_ty	pelvis_tz	hip_flexion_r	hip_adduction_r	hip_rotation_r	knee_angle_r	knee_rotation_r	knee_adduction_r	knee_angle_r_beta	ankle_angle_r	subtalar_angle_r	mtp_angle_r	hip_flexion_l	hip_adduction_l	hip_rotation_l	knee_angle_l	knee_rotation_l	knee_adduction_l	knee_angle_l_beta	ankle_angle_l	subtalar_angle_l	mtp_angle_l
      3.94500000	      5.65894476	    -43.56300444	      5.88488531	      0.00169248	      0.60705061	     -1.15763738	    115.28363529	    -45.79864371	      3.39917382	     84.25642654	      0.00000000	      0.00000000	      1.47055206	      6.50668957	      0.00000000	      0.00000000	    110.00184465	    -34.21608029	     -0.34122226	     76.79633060	      0.00000000	      0.00000000	      1.34034882	     -1.60526845	      0.00000000	      0.00000000
      3.95000000	      5.63631277	    -43.50199859	      5.87835532	      0.00201410	      0.60540175	     -1.15741659	    115.52669590	    -45.81744930	      3.62776888	     84.56792536	      0.00000000	      0.00000000	      1.47598874	      6.63696365	      0.00000000	      0.00000000	    110.19203849	    -34.31983102	     -0.20189547	     77.08202784	      0.00000000	      0.00000000	      1.34533518	     -1.52611528	      0.00000000	      0.00000000
      3.95500000	      5.63079697	    -43.55030526	      5.83896771	      0.00229917	      0.60378482	     -1.15722172	    115.82093001	    -45.85474198	      3.78938859	     84.86027222	      0.00000000	      0.00000000	      1.48109115	      6.77585601	      0.00000000	      0.00000000	    110.53648788	    -34.39135256	      0.00798305	     77.36541576	      0.00000000	      0.00000000	      1.35028123	     -1.48922143	      0.00000000	      0.00000000
      3.96000000	      5.57623418	    -43.44877906	      5.84476904	      0.00261480	      0.60208241	     -1.15701297	    116.05949841	    -45.83210018	      4.06951782	     85.17952565	      0.00000000	      0.00000000	      1.48666318	      6.88441185	      0.00000000	      0.00000000	    110.67177059	    -34.52558140	      0.12352365	     77.66565851	      0.00000000	      0.00000000	      1.35552146	     -1.39135942	      0.00000000	      0.00000000
      3.96500000	      5.52969974	    -43.40913641	      5.81665819	      0.00291506	      0.60046228	     -1.15681003	    116.29496643	    -45.82764879	      4.27355226	     85.47161939	      0.00000000	      0.00000000	      1.49176118	      7.00231897	      0.00000000	      0.00000000	    110.89256226	    -34.63130355	      0.29490289	     77.94954978	      0.00000000	      0.00000000	      1.36047629	     -1.30651478	      0.00000000	      0.00000000
      3.97000000	      5.56009262	    -43.34415936	      5.78961081	      0.00325980	      0.59887854	     -1.15665462	    116.48394346	    -45.91743668	      4.43865732	     85.76119842	      0.00000000	      0.00000000	      1.49681528	      7.10725718	      0.00000000	      0.00000000	    111.10700307	    -34.64876413	      0.50224578	     78.22200324	      0.00000000	      0.00000000	      1.36523150	     -1.25521135	      0.00000000	      0.00000000
      3.97500000	      5.53910686	    -43.28318194	      5.77685552	      0.00360055	      0.59716467	     -1.15647698	    116.73078555	    -45.94821196	      4.66574860	     86.08078651	      0.00000000	      0.00000000	      1.50239315	      7.25010706	      0.00000000	      0.00000000	    111.31655218	    -34.72640142	      0.67939183	     78.52411551	      0.00000000	      0.00000000	      1.37050436	     -1.13808926	      0.00000000	      0.00000000
      3.98000000	      5.46699711	    -43.24971590	      5.76903731	      0.00390923	      0.59555224	     -1.15629411	    116.99733939	    -45.90146480	      4.91008315	     86.37252199	      0.00000000	      0.00000000	      1.50748489	      7.37200462	      0.00000000	      0.00000000	    111.51151811	    -34.85845571	      0.81675787	     78.80041865	      0.00000000	      0.00000000	      1.37532676	     -1.04828215	      0.00000000	      0.00000000
      3.98500000	      5.47017304	    -43.20197821	      5.74572341	      0.00423973	      0.59388803	     -1.15613920	    117.23347010	    -45.96608791	      5.10096849	     86.67492322	      0.00000000	      0.00000000	      1.51276279	      7.49095535	      0.00000000	      0.00000000	    111.74529005	    -34.89756124	      1.02604033	     79.09060967	      0.00000000	      0.00000000	      1.38039155	     -0.94439970	      0.00000000	      0.00000000
      3.99000000	      5.40838189	    -43.12632751	      5.72830902	      0.00457113	      0.59223746	     -1.15597307	    117.45555552	    -45.94764924	      5.33100509	     86.97491760	      0.00000000	      0.00000000	      1.51799868	      7.61815299	      0.00000000	      0.00000000	    111.91546245	    -35.01030557	      1.18515547	     79.37528397	      0.00000000	      0.00000000	      1.38536005	     -0.85328369	      0.00000000	      0.00000000
      3.99500000	      5.35148106	    -43.08996046	      5.69885457	      0.00489033	      0.59059906	     -1.15582166	    117.69878115	    -45.93828760	      5.53363406	     87.26468024	      0.00000000	      0.00000000	      1.52305599	      7.73735628	      0.00000000	      0.00000000	    112.13936607	    -35.10687972	      1.37481397	     79.66233414	      0.00000000	      0.00000000	      1.39037002	     -0.75178432	      0.00000000	      0.00000000
      4.00000000	      5.36030837	    -43.03598835	      5.59885731	      0.00522629	      0.58894529	     -1.15570116	    117.83015919	    -46.06187596	      5.59243935	     87.54739357	      0.00000000	      0.00000000	      1.52799027	      7.87108710	      0.00000000	      0.00000000	    112.43572757	    -35.09667787	      1.69281451	     79.95663252	      0.00000000	      0.00000000	      1.39550650	     -0.71297829	      0.00000000	      0.00000000
      4.00500000	      5.27998468	    -42.98783794	      5.66508139	      0.00553480	      0.58726537	     -1.15553178	    118.19149200	    -45.97802727	      5.95848011	     87.85871086	      0.00000000	      0.00000000	      1.53342378	      7.97777868	      0.00000000	      0.00000000	    112.55838552	    -35.26441355	      1.74092473	     80.23141481	      0.00000000	      0.00000000	      1.40030235	     -0.56309392	      0.00000000	      0.00000000
      4.01000000	      5.24427931	    -42.88794062	      5.64849723	      0.00579889	      0.58561544	     -1.15538432	    118.39981220	    -46.00051086	      6.17489832	     88.15666031	      0.00000000	      0.00000000	      1.53862398	      8.06725355	      0.00000000	      0.00000000	    112.70525663	    -35.31849578	      1.92775151	     80.49303516	      0.00000000	      0.00000000	      1.40486849	     -0.47218768	      0.00000000	      0.00000000
      4.01500000	      5.18321511	    -42.88153115	      5.62117296	      0.00616383	      0.58393017	     -1.15523712	    118.67539068	    -45.99404524	      6.38154647	     88.44696185	      0.00000000	      0.00000000	      1.54369070	      8.19139468	      0.00000000	      0.00000000	    112.97518285	    -35.44062676	      2.11543483	     80.80187447	      0.00000000	      0.00000000	      1.41025875	     -0.36503310	      0.00000000	      0.00000000
      4.02000000	      5.03540012	    -42.85160153	      5.55743705	      0.00645850	      0.58232309	     -1.15504293	    118.90908734	    -45.90256932	      6.56966692	     88.73495669	      0.00000000	      0.00000000	      1.54871716	      8.30074699	      0.00000000	      0.00000000	    113.19123332	    -35.62301895	      2.29371817	     81.07892479	      0.00000000	      0.00000000	      1.41509419	     -0.23329200	      0.00000000	      0.00000000
      4.02500000	      5.00633936	    -42.81449616	      5.51704135	      0.00674970	      0.58067212	     -1.15490514	    119.13441019	    -45.94334719	      6.73204441	     89.01529047	      0.00000000	      0.00000000	      1.55360990	      8.40942563	      0.00000000	      0.00000000	    113.43925584	    -35.67577490	      2.52318720	     81.35708214	      0.00000000	      0.00000000	      1.41994895	     -0.16119084	      0.00000000	      0.00000000
